<svg width="32" height="30" viewBox="0 0 32 30" fill="none" xmlns="http://www.w3.org/2000/svg">
<path fill-rule="evenodd" clip-rule="evenodd" d="M6.33337 3.75C5.78109 3.75 5.33337 4.19772 5.33337 4.75V25.25C5.33337 25.8023 5.78109 26.25 6.33337 26.25H8.33337C8.88566 26.25 9.33337 25.8023 9.33337 25.25V4.75C9.33337 4.19772 8.88566 3.75 8.33337 3.75H6.33337ZM13 3.75C12.4477 3.75 12 4.19772 12 4.75V25.25C12 25.8023 12.4477 26.25 13 26.25H15C15.5523 26.25 16 25.8023 16 25.25V4.75C16 4.19772 15.5523 3.75 15 3.75H13Z" fill="#E66E6E"/>
<rect opacity="0.3" width="3.97424" height="22.6637" rx="1" transform="matrix(0.951646 -0.307198 0.344764 0.938689 17.9696 4.90489)" fill="#E66E6E"/>
<path fill-rule="evenodd" clip-rule="evenodd" d="M6.33337 3.75C5.78109 3.75 5.33337 4.19772 5.33337 4.75V25.25C5.33337 25.8023 5.78109 26.25 6.33337 26.25H8.33337C8.88566 26.25 9.33337 25.8023 9.33337 25.25V4.75C9.33337 4.19772 8.88566 3.75 8.33337 3.75H6.33337ZM13 3.75C12.4477 3.75 12 4.19772 12 4.75V25.25C12 25.8023 12.4477 26.25 13 26.25H15C15.5523 26.25 16 25.8023 16 25.25V4.75C16 4.19772 15.5523 3.75 15 3.75H13Z" fill="#E66E6E"/>
<rect opacity="0.3" width="3.97424" height="22.6637" rx="1" transform="matrix(0.951646 -0.307198 0.344764 0.938689 17.9696 4.90489)" fill="#E66E6E"/>
</svg>
