<svg width="19" height="19" viewBox="0 0 25 24" fill="none" xmlns="http://www.w3.org/2000/svg">
<path fill-rule="evenodd" clip-rule="evenodd" d="M4.16663 9.67461L11.3336 13.6469C11.4107 13.6897 11.4917 13.7206 11.574 13.7402V21.4443L4.67777 17.5264C4.36095 17.3464 4.16663 17.0192 4.16663 16.6658V9.67461ZM20.8333 9.56912V16.6659C20.8333 17.0193 20.639 17.3465 20.3222 17.5265L13.4259 21.4444V13.6728C13.4427 13.6648 13.4594 13.6562 13.4758 13.647L20.8333 9.56912Z" fill="white"/>
<path opacity="0.3" fill-rule="evenodd" clip-rule="evenodd" d="M4.39185 7.74681C4.47939 7.64069 4.58988 7.551 4.7187 7.48513L12.0104 3.75678C12.3165 3.60026 12.6836 3.60026 12.9897 3.75678L20.2814 7.48513C20.3807 7.5359 20.4691 7.60084 20.5445 7.67654L12.55 12.1076C12.4974 12.1367 12.449 12.17 12.4048 12.2069C12.3606 12.17 12.3122 12.1367 12.2596 12.1076L4.39185 7.74681Z" fill="white"/>
</svg>
