<svg width="100" height="91" viewBox="0 0 100 91" fill="none" xmlns="http://www.w3.org/2000/svg">
<g clip-path="url(#clip0)">
<path d="M103 74.3341C103 83.538 95.3139 91.0005 85.8339 91.0005C76.3529 91.0005 68.6675 83.538 68.6675 74.3341C68.6675 65.1292 76.3529 57.6677 85.8339 57.6677C95.3139 57.6677 103 65.1292 103 74.3341Z" fill="#F6F7F9"/>
<path d="M81.5424 34.7497C81.5424 42.8045 74.8177 49.3333 66.5213 49.3333C58.225 49.3333 51.5002 42.8045 51.5002 34.7497C51.5002 26.696 58.225 20.1662 66.5213 20.1662C74.8177 20.1662 81.5424 26.696 81.5424 34.7497Z" fill="#F6F7F9"/>
<path d="M51.5002 65.9997C51.5002 79.807 39.9711 91.0003 25.7496 91.0003C11.5291 91.0003 0 79.807 0 65.9997C0 52.1924 11.5291 41.0001 25.7496 41.0001C39.9711 41.0001 51.5002 52.1924 51.5002 65.9997Z" fill="#F6F7F9"/>
<path d="M42.918 11.834C42.918 23.34 33.3102 32.6679 21.459 32.6679C9.60773 32.6679 0 23.34 0 11.834C0 0.327888 9.60773 -9 21.459 -9C33.3102 -9 42.918 0.327888 42.918 11.834Z" fill="#F6F7F9"/>
<path d="M103 3.49981C103 10.4035 97.2353 15.9996 90.1246 15.9996C83.0138 15.9996 77.2498 10.4035 77.2498 3.49981C77.2498 -3.40384 83.0138 -9 90.1246 -9C97.2353 -9 103 -3.40384 103 3.49981Z" fill="#F6F7F9"/>
<path d="M98.7077 45.1658C98.7077 47.467 96.7864 49.3324 94.4161 49.3324C92.0459 49.3324 90.1245 47.467 90.1245 45.1658C90.1245 42.8655 92.0459 41.0001 94.4161 41.0001C96.7864 41.0001 98.7077 42.8655 98.7077 45.1658Z" fill="#F6F7F9"/>
<path d="M66.5213 5.5834C66.5213 9.0357 63.6393 11.8338 60.0834 11.8338C56.5285 11.8338 53.6465 9.0357 53.6465 5.5834C53.6465 2.13205 56.5285 -0.666031 60.0834 -0.666031C63.6393 -0.666031 66.5213 2.13205 66.5213 5.5834Z" fill="#F6F7F9"/>
</g>
<defs>
<clipPath id="clip0">
<rect width="103" height="100" fill="white" transform="translate(0 -9)"/>
</clipPath>
</defs>
</svg>
