<svg width="533" height="476" viewBox="0 0 533 476" fill="none" xmlns="http://www.w3.org/2000/svg">
<path fill-rule="evenodd" clip-rule="evenodd" d="M168.883 350.248C168.883 353.864 171.568 356.795 174.879 356.795C178.19 356.795 180.874 353.864 180.874 350.248C180.874 346.632 178.19 343.701 174.879 343.701C171.568 343.701 168.883 346.632 168.883 350.248ZM170.882 350.248C170.882 347.837 172.671 345.883 174.878 345.883C177.086 345.883 178.875 347.837 178.875 350.248C178.875 352.658 177.086 354.613 174.878 354.613C172.671 354.613 170.882 352.658 170.882 350.248Z" fill="white"/>
<path fill-rule="evenodd" clip-rule="evenodd" d="M409.245 379.309C409.245 382.925 411.929 385.857 415.24 385.857C418.551 385.857 421.235 382.925 421.235 379.309C421.235 375.693 418.551 372.762 415.24 372.762C411.929 372.762 409.245 375.693 409.245 379.309ZM411.243 379.309C411.243 376.898 413.032 374.944 415.24 374.944V374.949C417.446 374.949 419.234 376.9 419.237 379.309C419.237 381.72 417.447 383.674 415.24 383.674C413.032 383.674 411.243 381.72 411.243 379.309Z" fill="white"/>
<path fill-rule="evenodd" clip-rule="evenodd" d="M249.477 384.765C249.477 388.381 252.161 391.313 255.472 391.313C257.062 391.313 258.587 390.623 259.711 389.395C260.835 388.167 261.467 386.502 261.467 384.765C261.467 381.149 258.783 378.218 255.472 378.218C252.161 378.218 249.477 381.149 249.477 384.765ZM251.475 384.765C251.475 382.354 253.265 380.4 255.472 380.4C257.679 380.4 259.469 382.354 259.469 384.765C259.469 387.176 257.679 389.13 255.472 389.13C253.265 389.13 251.475 387.176 251.475 384.765Z" fill="white"/>
<path fill-rule="evenodd" clip-rule="evenodd" d="M19.5266 187.053C19.5266 190.669 22.2106 193.601 25.5216 193.601C28.8326 193.601 31.5167 190.669 31.5167 187.053C31.5167 183.437 28.8326 180.506 25.5216 180.506C22.2106 180.506 19.5266 183.437 19.5266 187.053ZM21.5249 187.053C21.5249 184.643 23.3143 182.688 25.5216 182.688V182.693C27.7274 182.693 29.5161 184.644 29.5183 187.053C29.5183 189.464 27.7289 191.418 25.5216 191.418C23.3143 191.418 21.5249 189.464 21.5249 187.053Z" fill="white"/>
<path fill-rule="evenodd" clip-rule="evenodd" d="M465.143 203.277C465.143 206.893 467.827 209.825 471.138 209.825C474.449 209.825 477.133 206.893 477.133 203.277C477.133 199.661 474.449 196.73 471.138 196.73C467.827 196.73 465.143 199.661 465.143 203.277ZM467.141 203.278C467.141 200.867 468.931 198.913 471.138 198.913C473.345 198.913 475.135 200.867 475.135 203.278C475.135 205.688 473.345 207.642 471.138 207.642C468.931 207.642 467.141 205.688 467.141 203.278Z" fill="white"/>
<path fill-rule="evenodd" clip-rule="evenodd" d="M191.489 55.0019C191.489 58.6179 194.173 61.5493 197.484 61.5493C200.795 61.5493 203.479 58.6179 203.479 55.0019C203.479 51.386 200.795 48.4546 197.484 48.4546C194.173 48.4546 191.489 51.386 191.489 55.0019ZM193.488 55.0021C193.488 52.5914 195.277 50.6372 197.484 50.6372V50.6416C199.69 50.6416 201.479 52.5931 201.481 55.0021C201.481 57.4127 199.692 59.367 197.484 59.367C195.277 59.367 193.488 57.4127 193.488 55.0021Z" fill="white"/>
<path fill-rule="evenodd" clip-rule="evenodd" d="M87.023 352.666C87.023 356.282 89.7071 359.213 93.0181 359.213C96.329 359.213 99.0131 356.282 99.0131 352.666C99.0131 349.05 96.329 346.119 93.0181 346.119C89.7071 346.119 87.023 349.05 87.023 352.666ZM89.0212 352.665C89.0212 350.255 90.8106 348.301 93.0179 348.301C95.2252 348.301 97.0146 350.255 97.0146 352.665C97.0146 355.076 95.2252 357.03 93.0179 357.03C90.8106 357.03 89.0212 355.076 89.0212 352.665Z" fill="white"/>
<g opacity="0.63">
<path opacity="0.7" d="M371.001 284.316H220.385V327.646H371.001C381.943 327.613 390.806 317.934 390.837 305.983C390.806 294.033 381.944 284.352 371.001 284.316Z" fill="white"/>
<path d="M69.7733 284.316C58.8298 284.352 49.9666 294.032 49.9337 305.983C49.9666 317.934 58.8305 327.613 69.7733 327.646H220.385V284.316H69.7733Z" fill="white"/>
</g>
<g opacity="0.25">
<path d="M531.241 90.1229H446.805C445.834 90.1277 445.047 90.9878 445.043 92.0502V171.413L467.403 146.965H531.241C532.212 146.962 532.998 146.103 533 145.042V92.0502C532.998 90.9885 532.212 90.1277 531.241 90.1229V90.1229Z" fill="white"/>
</g>
<rect x="454.696" y="104.69" width="68.6512" height="4.70697" rx="2.35348" fill="#17E59E"/>
<rect x="454.696" y="115.917" width="60.7768" height="4.70697" rx="2.35348" fill="#17E59E"/>
<rect x="454.696" y="127.14" width="48.4736" height="4.70697" rx="2.35348" fill="#17E59E"/>
<g opacity="0.25">
<path d="M160.372 69.4725H117.471C116.977 69.4749 116.578 69.9118 116.575 70.4514V110.778L127.935 98.3655H160.372C160.867 98.3655 161.268 97.9272 161.268 97.3865V70.4514C161.268 69.9108 160.867 69.4725 160.372 69.4725Z" fill="white"/>
</g>
<rect x="121.48" y="76.876" width="34.8832" height="2.39063" rx="1.19532" fill="white"/>
<rect x="121.48" y="82.5796" width="30.8821" height="2.39063" rx="1.19532" fill="white"/>
<rect x="121.48" y="88.2831" width="24.6305" height="2.39063" rx="1.19532" fill="white"/>
<g opacity="0.25">
<path d="M150.887 11.1707H94.3954C93.7332 11.1707 93.1963 11.7577 93.1963 12.4818V65.5565L108.154 49.2023H150.887C151.542 49.2024 152.076 48.6286 152.086 47.913V12.46C152.076 11.7444 151.542 11.1706 150.887 11.1707Z" fill="white"/>
</g>
<rect x="99.6755" y="20.9168" width="45.9314" height="3.15109" rx="1.57555" fill="#17E59E"/>
<rect x="99.6755" y="28.4298" width="40.6631" height="3.15109" rx="1.57555" fill="#17E59E"/>
<rect x="99.6755" y="35.9382" width="32.433" height="3.15109" rx="1.57555" fill="#17E59E"/>
<g opacity="0.25">
<path d="M358.096 27.7042H429.541C430.364 27.7066 431.03 28.4351 431.032 29.3344V96.4819L412.106 75.801H358.096C357.274 75.7985 356.609 75.0694 356.609 74.1708V29.3344C356.609 28.4358 357.274 27.7066 358.096 27.7042Z" fill="white"/>
</g>
<rect x="422.866" y="44.0105" width="58.0868" height="3.98585" rx="1.99292" transform="rotate(180 422.866 44.0105)" fill="#4262FF"/>
<rect x="422.861" y="53.5118" width="51.4275" height="3.98585" rx="1.99292" transform="rotate(-180 422.861 53.5118)" fill="#FF9E01"/>
<rect x="422.866" y="63.0088" width="41.0149" height="3.98585" rx="1.99292" transform="rotate(-180 422.866 63.0088)" fill="#4262FF"/>
<g opacity="0.25">
<rect x="231.202" width="65.3816" height="120.952" rx="5.54" fill="white"/>
</g>
<path d="M259.694 94.7249C259.694 89.7446 256.482 85.4552 252.016 84.4739C247.551 83.4926 243.072 86.092 241.313 90.686C239.554 95.28 241.003 100.593 244.776 103.383C245.491 100.802 247.666 99.0362 250.132 99.0362C252.599 99.0362 254.774 100.802 255.489 103.383C258.119 101.44 259.694 98.1955 259.694 94.7249Z" fill="#17E59E"/>
<path d="M250.132 99.0473C247.669 99.0458 245.494 100.806 244.776 103.383C248.013 105.772 252.252 105.772 255.489 103.383C254.771 100.806 252.596 99.0458 250.132 99.0473Z" fill="white"/>
<path d="M250.132 97.8323C252.15 97.8323 253.786 96.0439 253.786 93.8378C253.786 91.6316 252.15 89.8432 250.132 89.8432C248.115 89.8432 246.479 91.6316 246.479 93.8378C246.479 96.0439 248.115 97.8323 250.132 97.8323Z" fill="white"/>
<path d="M259.694 66.5794C259.694 61.5991 256.482 57.3096 252.016 56.3284C247.551 55.3471 243.072 57.9465 241.313 62.5404C239.554 67.1344 241.003 72.4473 244.776 75.2373C245.491 72.6562 247.666 70.8907 250.132 70.8907C252.599 70.8907 254.774 72.6562 255.489 75.2373C258.12 73.2954 259.696 70.0503 259.694 66.5794Z" fill="#FF9E01"/>
<path d="M250.132 70.9061C247.67 70.904 245.496 72.6622 244.776 75.2372C248.013 77.6261 252.252 77.6261 255.489 75.2372C254.769 72.6622 252.595 70.904 250.132 70.9061Z" fill="white"/>
<path d="M250.132 69.6868C252.15 69.6868 253.786 67.8984 253.786 65.6922C253.786 63.4861 252.15 61.6976 250.132 61.6976C248.115 61.6976 246.479 63.4861 246.479 65.6922C246.479 67.8984 248.115 69.6868 250.132 69.6868Z" fill="white"/>
<rect x="236.418" y="6.71721" width="54.949" height="5.97003" rx="2.98501" fill="#FF9E01"/>
<rect x="287.39" y="96.7136" width="22.6999" height="3.98585" rx="1.99292" transform="rotate(180 287.39 96.7136)" fill="#4262FF"/>
<path d="M259.694 38.5472C259.694 33.5669 256.482 29.2775 252.016 28.2962C247.551 27.3149 243.072 29.9143 241.313 34.5083C239.554 39.1023 241.003 44.4151 244.776 47.2051C245.491 44.624 247.666 42.8585 250.132 42.8585C252.599 42.8585 254.774 44.624 255.489 47.2051C258.12 45.2632 259.696 42.0182 259.694 38.5472Z" fill="#17E59E"/>
<path d="M250.132 42.861C247.67 42.8589 245.496 44.6171 244.776 47.1921C248.013 49.581 252.252 49.581 255.489 47.1921C254.769 44.6171 252.595 42.8589 250.132 42.861Z" fill="white"/>
<path d="M250.132 41.6546C252.15 41.6546 253.786 39.8662 253.786 37.6601C253.786 35.4539 252.15 33.6655 250.132 33.6655C248.115 33.6655 246.479 35.4539 246.479 37.6601C246.479 39.8662 248.115 41.6546 250.132 41.6546Z" fill="white"/>
<rect x="287.39" y="40.5402" width="22.6999" height="3.98585" rx="1.99292" transform="rotate(-180 287.39 40.5402)" fill="#4262FF"/>
<rect x="287.39" y="67.6809" width="22.6999" height="3.98585" rx="1.99292" transform="rotate(-180 287.39 67.6809)" fill="#4262FF"/>
<g opacity="0.25">
<path d="M7.70889 75.2721H92.1449C93.1175 75.2745 93.9055 76.136 93.9077 77.1995V156.558L71.5475 132.114H7.70889C6.73782 132.109 5.95232 131.248 5.95013 130.187V77.1995C5.95232 76.1377 6.73782 75.2769 7.70889 75.2721Z" fill="white"/>
</g>
<path d="M69.7487 110.62C73.528 110.62 76.5918 107.271 76.5918 103.138C76.5918 99.006 73.528 95.6561 69.7487 95.6561C65.9693 95.6561 62.9055 99.006 62.9055 103.138C62.9055 107.271 65.9693 110.62 69.7487 110.62Z" fill="#4262FF"/>
<path d="M49.9267 110.62C53.7061 110.62 56.7698 107.271 56.7698 103.138C56.7698 99.006 53.7061 95.6561 49.9267 95.6561C46.1473 95.6561 43.0836 99.006 43.0836 103.138C43.0836 107.271 46.1473 110.62 49.9267 110.62Z" fill="#4262FF"/>
<path d="M30.1088 110.62C33.8881 110.62 36.9519 107.271 36.9519 103.138C36.9519 99.006 33.8881 95.6561 30.1088 95.6561C26.3294 95.6561 23.2656 99.006 23.2656 103.138C23.2656 107.271 26.3294 110.62 30.1088 110.62Z" fill="#4262FF"/>
<path d="M313.565 425.431C313.565 425.431 303.776 460.424 307.57 463.898C311.363 467.373 342.101 478.832 342.797 475.349C343.492 471.865 330.321 459.031 330.321 459.031L336.089 433.415L313.565 425.431Z" fill="#21243D"/>
<path d="M471.173 322.967C471.173 322.967 505.404 350.525 509.461 347.731C513.519 344.938 526.581 309.342 523.563 307.697C520.546 306.051 505.756 315.594 505.756 315.594L483.728 302.812L471.173 322.967Z" fill="#21243D"/>
<path d="M340.322 244.482L383.276 225.135C385.481 224.143 388.006 224.55 389.855 226.195C392.753 228.684 397.318 232.46 401.698 235.463C408.893 240.383 506.052 299.8 506.052 299.8L483.148 337.818C483.148 337.818 389.279 261.703 383.539 265.209C376.744 269.351 317.455 285.18 317.455 285.18C317.455 285.18 290.126 291.51 302.809 238.034" fill="#ED7715"/>
<path d="M290.05 299.416L338.608 328.511L304.8 438.802L338.991 438.872C338.991 438.872 369.63 312.774 367.711 308.042C366.756 305.693 326.037 277.1 305.008 254.347C293.564 241.954 269.745 243.582 268.634 249.109C263.31 275.428 280.649 294.225 290.054 299.442" fill="#FF9E01"/>
<path d="M387.581 196.31C386.523 196.309 385.556 195.657 385.082 194.625C384.608 193.592 384.707 192.356 385.338 191.43L410.045 155.158C410.642 154.282 411.621 153.821 412.614 153.947C413.607 154.074 414.462 154.77 414.858 155.772C415.254 156.774 415.13 157.931 414.533 158.807L389.827 195.079C389.299 195.854 388.466 196.311 387.581 196.31Z" fill="#21243D"/>
<path d="M340.226 124.954C340.226 124.954 338.176 119.37 336.86 122.806C335.545 126.241 335.757 129.332 337.172 129.515C338.587 129.699 339.946 127.333 339.946 127.333L340.226 124.954Z" fill="#FF9494"/>
<path d="M353.445 144.152L338.951 161.212L326.708 171.213L318.162 159.387L325.129 150.185L339.503 126.014L353.445 144.152Z" fill="#FF9494"/>
<path d="M367.731 118.135C368.07 121.627 364.933 123.762 364.073 127.237C363.058 131.371 362.179 138.587 361.635 145.1C361.431 147.553 360.692 154.114 358.885 156.45C357.646 158.065 355.811 152.604 354.952 154.167C352.25 159.086 345.415 164.412 344.068 163.932C341.517 163.015 339.847 157.139 339.031 154.765C337.429 150.086 336.812 145.072 337.229 140.097C337.664 134.339 337.98 128.289 339.695 122.784C340.938 118.803 342.773 113.215 344.631 109.487C346.418 105.907 351.063 110.613 354.256 109.264C359.509 107.056 363.981 110.482 366.484 115.245C367.627 117.48 367.699 117.908 367.731 118.135Z" fill="#FDB4B1"/>
<path d="M348.077 154.062C349.061 154.577 350.136 154.851 351.227 154.865C351.365 154.847 351.469 154.718 351.469 154.566C351.469 154.414 351.365 154.285 351.227 154.267C351.195 154.267 348.197 154.267 346.786 152.123C345.375 149.98 346.054 148.16 346.062 148.138C346.091 148.066 346.093 147.984 346.065 147.91C346.038 147.837 345.985 147.779 345.918 147.749C345.852 147.717 345.776 147.716 345.708 147.746C345.641 147.775 345.587 147.833 345.559 147.907C345.527 147.989 344.759 150.041 346.358 152.473C346.805 153.147 347.394 153.692 348.077 154.062Z" fill="#94163D"/>
<path d="M372.987 124.189C372.632 125.412 372.043 126.538 371.26 127.494C369.981 129.013 368.234 128.577 366.991 127.293C364.925 125.154 364.105 121.784 361.823 119.924C361.461 119.583 361.012 119.373 360.536 119.322C359.884 119.3 359.313 119.758 358.753 120.121C355.452 122.304 351.255 121.788 347.517 120.767C346.762 120.562 345.966 120.33 345.211 120.549C343.932 120.907 343.212 122.347 342.373 123.456C341.533 124.565 339.895 125.403 338.959 124.381C338.589 123.885 338.368 123.275 338.328 122.635L337.728 118.885C337.257 115.978 336.997 112.429 339.143 110.639C339.663 110.203 340.274 109.928 340.798 109.504C342.545 108.081 342.928 105.335 344.475 103.65C346.234 101.734 349.196 101.494 351.542 101.599C352.185 101.565 352.819 101.775 353.337 102.192C353.897 102.751 354.029 103.724 354.648 104.205C355.115 104.523 355.693 104.583 356.207 104.366C357.61 103.855 358.645 102.437 359.892 101.629C362.514 99.931 363.997 101.585 365.548 103.707C366.779 105.374 368.099 106.96 369.501 108.457C371.196 110.277 373.011 111.329 373.379 114.153C373.774 117.17 373.966 121.02 372.987 124.189Z" fill="#21243D"/>
<path d="M356.323 126.643L356.395 126.674C356.491 126.705 356.592 126.647 356.622 126.543C356.643 126.493 356.643 126.435 356.622 126.385C357.021 126.242 357.432 126.142 357.85 126.089C358.933 125.873 360.007 126.518 360.42 127.634C360.437 127.71 360.492 127.768 360.562 127.784C360.633 127.799 360.704 127.769 360.747 127.706C360.789 127.642 360.794 127.558 360.759 127.49C360.273 126.211 359.044 125.468 357.794 125.696C356.315 125.949 356.195 126.132 356.167 126.355C356.161 126.477 356.222 126.59 356.323 126.643Z" fill="#35393A"/>
<path d="M358.277 129.921C358.42 129.432 358.203 128.904 357.774 128.695C357.018 128.337 356.447 129.026 356.467 129.76C356.487 130.493 357.378 131.209 357.746 131.069C358.114 130.93 358.645 130.345 358.277 129.921Z" fill="#35393A"/>
<path d="M392.821 201.766C392.821 201.766 404.133 195.655 411.072 189.072C418.011 182.489 417.367 178.119 415.329 178.66L413.294 179.197C413.294 179.197 415.545 176.814 413.922 176.207C412.299 175.6 411.552 175.827 411.552 175.827C411.552 175.827 413.354 173.387 411.312 172.964L409.269 172.527C409.269 172.527 410.744 168.323 407.846 169.956C404.948 171.589 392.357 182.616 390.914 180.769C389.471 178.922 390.079 175.448 392.797 173.239C395.515 171.03 395.283 165.87 391.998 168.04C388.712 170.209 385.942 172.793 385.087 176.666C384.231 180.538 384.983 187.557 384.983 187.557L365.373 201.784L371.668 217.063L392.821 201.766Z" fill="#FDB4B1"/>
<path d="M330.605 166.813C335.946 170.279 335.846 181.778 336.121 187.701C336.829 203.115 332.828 218.01 329.59 232.887C326.604 246.629 324.953 253.042 324.937 253.108C323.363 258.578 281.944 248.537 270.8 251.3C270.22 251.438 269.616 251.256 269.183 250.813C268.749 250.37 268.543 249.724 268.63 249.083C270.628 234.044 277.691 184.161 285.562 171.414C294.863 156.354 320.645 151.936 320.645 151.936C320.645 151.936 323.051 161.911 330.605 166.813Z" fill="#274DD8"/>
<path d="M318.662 162.395C318.662 162.395 333.208 219.831 337.956 220.455C342.705 221.079 373.818 193.97 375.685 193.39C377.552 192.809 394.991 215.513 390.231 216.932C385.47 218.351 333.355 259.652 325.905 257.892C318.454 256.133 301.458 200.082 299.779 190.801C298.101 181.52 311.827 148.221 318.662 162.395Z" fill="#4262FF"/>
<path d="M147.037 118.222C147.037 118.222 147.225 99.198 166.851 106.34C180.537 111.321 183.079 123.565 199.251 165.032C215.424 206.499 250.415 188.841 250.415 188.841C250.415 188.841 262.522 196.655 250.415 207.721C236.932 220.049 246.925 226.606 235.394 228.963C223.862 231.32 216.467 225.143 216.467 225.143L171.639 184.314" fill="#21243D"/>
<path d="M167.374 135.308C167.374 135.308 169.253 129.633 170.668 133.038C172.083 136.443 171.975 139.516 170.568 139.752C169.161 139.988 167.726 137.67 167.726 137.67L167.374 135.308Z" fill="#FF9494"/>
<path d="M151.346 146.938L166.271 163.539L178.574 173.313L185.877 162.002L178.634 153.053L163.341 129.603L151.346 146.938Z" fill="#FF9494"/>
<path d="M144.691 139.045C145.406 142.288 147.409 146.296 147.537 151.543C147.585 153.52 147.061 155.402 147.76 158.728C148.096 160.339 151.026 158.702 151.758 159.863C154.032 163.522 160.208 166.953 161.515 166.372C163.989 165.276 165.912 160.261 166.843 158.2C168.591 154.402 169.478 150.201 169.429 145.951C169.357 141.293 169.429 136.386 168.114 132.113C167.171 129.022 165.764 124.692 164.217 121.898C162.734 119.209 158.041 123.696 155.087 123.033C150.235 121.937 148.008 124.644 145.35 128.887C144.127 130.834 144.099 136.317 144.691 139.045Z" fill="#FDB4B1"/>
<path d="M157.022 156.642C156.055 157.194 154.989 157.507 153.9 157.558C153.75 157.558 153.628 157.426 153.628 157.262C153.628 157.098 153.75 156.965 153.9 156.965C153.928 156.965 156.926 156.869 158.269 154.655C159.612 152.442 158.876 150.665 158.868 150.648C158.827 150.551 158.836 150.438 158.892 150.35C158.948 150.263 159.042 150.215 159.14 150.224C159.237 150.233 159.322 150.298 159.364 150.395C159.4 150.478 160.235 152.503 158.724 154.987C158.289 155.683 157.705 156.251 157.022 156.642Z" fill="#94163D"/>
<path d="M151.438 139.455L151.37 139.49C151.299 139.516 151.221 139.493 151.172 139.432C151.123 139.371 151.113 139.284 151.146 139.211C150.743 139.084 150.329 139.001 149.911 138.962C148.822 138.789 147.77 139.471 147.389 140.599C147.374 140.649 147.342 140.69 147.299 140.714C147.256 140.738 147.206 140.742 147.161 140.725C147.065 140.69 147.013 140.577 147.045 140.472C147.49 139.174 148.696 138.383 149.955 138.565C151.442 138.761 151.582 138.962 151.602 139.163C151.608 139.288 151.543 139.404 151.438 139.455Z" fill="#35393A"/>
<path d="M149.583 142.808C149.428 142.324 149.629 141.789 150.051 141.564C150.794 141.18 151.386 141.847 151.39 142.581C151.394 143.314 150.522 144.061 150.155 143.943C149.787 143.825 149.231 143.244 149.583 142.808Z" fill="#35393A"/>
<g opacity="0.42">
<path d="M159.62 147.797C161.562 147.797 163.137 146.077 163.137 143.956C163.137 141.834 161.562 140.114 159.62 140.114C157.677 140.114 156.102 141.834 156.102 143.956C156.102 146.077 157.677 147.797 159.62 147.797Z" fill="#FE5923"/>
</g>
<path fill-rule="evenodd" clip-rule="evenodd" d="M170.312 151.997C170.808 153.228 171.411 153.874 172.007 153.874C172.044 153.876 172.082 153.873 172.119 153.865C173.49 153.656 173.842 150.116 173.442 146.881C173.282 145.328 172.917 143.809 172.359 142.371C171.807 141.057 171.183 140.411 170.552 140.503C169.181 140.713 168.849 144.253 169.229 147.488C169.389 149.04 169.754 150.559 170.312 151.997ZM170.64 141.149H170.672C170.908 141.149 171.348 141.551 171.839 142.642C172.37 144.021 172.717 145.477 172.871 146.964C173.314 150.696 172.703 153.11 172.071 153.202C171.815 153.237 171.36 152.866 170.872 151.709C170.341 150.329 169.994 148.874 169.841 147.387C169.397 143.655 170.009 141.241 170.64 141.149Z" fill="#FCE63D"/>
<path d="M172.846 168.76C167.614 172.423 165.416 189.535 165.328 195.463C165.092 210.895 178.31 223.231 182.008 237.977C185.417 251.602 187.372 250.336 187.392 250.401C189.39 256.613 224.022 228.452 225.265 236.519C225.265 236.497 214.297 198.746 204.536 184.039C194.775 169.332 183.019 157.737 183.019 157.737C183.019 157.737 180.241 163.583 172.846 168.76Z" fill="#17E59E"/>
<path d="M103.52 173.763C103.52 173.763 97.1246 163.548 92.3041 164.05C87.8714 164.576 83.4738 165.409 79.1375 166.542C75.4082 167.459 68.1454 170.672 76.0637 170.868C79.3893 170.947 82.7109 170.956 86.0366 170.964C86.4363 174.588 87.9432 177.897 89.8818 180.821C93.6671 186.536 91.9164 183.297 98.5596 186.37C105.203 189.443 112.949 193.381 112.949 193.381L114.812 186.296L103.52 173.763Z" fill="#FF9494"/>
<path d="M172.823 174.147C164.74 184.187 145.142 208.044 141.645 207.721C137.248 207.315 113.665 182.301 112.094 181.385C110.523 180.468 90.7573 197.467 94.8303 199.719C98.9034 201.972 133.563 232.691 140.602 232.625C147.641 232.56 182.735 200.653 185.861 192.591C188.987 184.528 184.942 158.331 176.296 169.777C176.296 169.777 174.961 171.471 172.807 174.143" fill="#18C482"/>
<path d="M139.174 133.497C139.214 134.283 139.438 135.045 139.826 135.71C140.317 136.576 141.228 137.046 142.152 136.91C143.647 136.657 144.694 135.02 145.794 133.811C147.296 132.161 148.779 130.45 150.45 129.136C154.447 125.984 158.205 127.603 162.086 131.934C163.221 133.2 164.36 134.575 165.683 135.203C165.955 135.383 166.292 135.401 166.579 135.251C167.022 134.928 167.002 134.012 167.146 133.309C167.51 131.532 169.061 130.952 169.628 129.319C170.164 127.774 169.489 125.39 168.241 124.622C167.868 124.455 167.502 124.267 167.146 124.059C165.547 122.88 165.707 119.693 165.312 117.716C165.266 117.422 165.175 117.139 165.044 116.878C164.676 116.249 163.996 116.354 163.565 116.755C163.133 117.157 162.821 117.786 162.366 118.096C161.238 118.842 159.792 117.511 158.524 117.729C157.725 117.869 157.073 118.628 156.458 119.327C155.686 120.2 154.787 119.946 153.84 119.226C153.1 118.659 152.417 117.917 151.645 117.449C151.017 117.068 150.289 116.927 149.579 117.048C146.921 117.55 144.61 120.422 142.88 122.518C140.417 125.486 138.886 129.463 139.174 133.497Z" fill="#21243D"/>
<path d="M145.03 128.127C145.03 128.127 145.03 132.719 148.228 133.623C151.426 134.527 153.209 131.414 155.467 133.553C157.725 135.692 159.34 136.84 162.55 137.316C165.76 137.792 168.614 132.724 168.614 132.724L170.444 130.009V127.926L154.104 121.505L145.03 128.127Z" fill="#21243D"/>
<path d="M89.8856 188.439C89.3218 188.438 88.7715 188.251 88.3067 187.902L61.1262 167.52C60.3022 166.902 59.8429 165.85 59.9212 164.762C59.9996 163.673 60.6038 162.713 61.5061 162.243C62.4084 161.773 63.4719 161.864 64.2959 162.483L91.4764 182.864C92.4892 183.624 92.9297 185.016 92.5624 186.297C92.1952 187.577 91.1061 188.446 89.8776 188.439H89.8856Z" fill="#21243D"/>
<path d="M43.4029 346.064C43.4029 346.064 21.5186 363.962 18.0251 361.779C14.5316 359.597 -2.04454 336.949 0.209847 335.408C2.46423 333.867 15.1392 341.345 15.1392 341.345L31.5714 329.402L43.4029 346.064Z" fill="#21243D"/>
<path d="M51.0097 289.327C51.0097 289.327 25.1162 306.509 21.5388 304.086C17.9613 301.664 2.3165 277.746 4.95462 276.279C7.59273 274.812 20.6234 283.089 20.6234 283.089L39.8816 271.739L51.0097 289.327Z" fill="#21243D"/>
<path d="M221.471 229.43C221.471 229.43 196.905 250.497 190.657 246.433C168.673 232.149 137.296 208.812 129.709 212.994C119.964 218.342 28.0818 275.109 28.0818 275.109L35.9681 305.2C35.9681 305.2 127.155 237.187 133.422 241.116C139.69 245.045 193.056 283.159 208.828 278.339C242.8 267.959 225.125 231.853 221.471 229.43Z" fill="#FE5923"/>
<path d="M219.369 231.892C219.369 231.892 197.681 259.8 189.994 257.779C162.97 250.672 123.738 237.698 116.503 244.041C107.209 252.2 21.0391 335.242 21.0391 335.242L36.472 361.954C36.472 361.954 119.305 268.229 126.971 270.119C134.638 272.01 201.05 292.588 216.955 283.102C251.254 262.668 223.87 233.123 219.369 231.892Z" fill="#ED7715"/>
<path d="M186.852 248.297C186.852 248.297 184.985 255.325 188.371 257.185C191.757 259.044 225.189 239.846 225.265 237.541C225.341 235.236 222.998 231.084 222.998 231.084C222.998 231.084 200.015 245.42 195.79 246.363C191.565 247.306 186.852 248.297 186.852 248.297Z" fill="#21243D"/>
<path d="M191.716 256.207L189.286 257.599C187.855 258.416 185.98 256.918 185.121 254.269L184.853 253.439C183.99 250.789 184.454 247.952 185.893 247.136L188.319 245.747C189.754 244.927 191.628 246.424 192.488 249.074L192.756 249.903C193.615 252.553 193.147 255.391 191.716 256.207Z" fill="#FCE63D"/>
<path d="M214.065 216.473L213.821 216.15C213.778 216.09 213.744 216.022 213.721 215.95C212.722 213.767 192.536 175.234 186.113 169.677C183.227 167.188 179.538 166.106 176.24 166.787C173.47 167.359 171.092 169.153 170.037 171.471C169.222 173.285 169.263 175.419 170.148 177.194C170.243 177.404 170.229 177.653 170.11 177.847C169.991 178.042 169.786 178.153 169.572 178.138C169.358 178.123 169.168 177.984 169.073 177.774C168.014 175.435 167.974 173.051 168.961 170.886C170.184 168.21 172.887 166.145 176.02 165.499C179.654 164.753 183.703 165.936 186.857 168.646C189.698 171.104 195.251 179.704 203.417 194.21C206.686 200.033 209.572 205.399 211.411 208.873C214.944 215.522 214.936 215.561 214.872 215.858L214.789 216.255L214.065 216.473Z" fill="#FCE63D"/>
<path d="M197.793 225.998C197.616 225.999 197.448 225.914 197.333 225.767C197.221 225.623 186.045 211.13 180.109 200.884C179.978 200.687 179.957 200.426 180.057 200.207C180.157 199.989 180.359 199.849 180.583 199.844C180.807 199.84 181.014 199.971 181.121 200.186C187.016 210.357 198.14 224.776 198.252 224.92C198.404 225.115 198.437 225.388 198.339 225.62C198.24 225.852 198.027 225.999 197.793 225.998Z" fill="#FCE63D"/>
<path d="M187.557 228.691C186.008 225.761 187.025 221.951 189.829 220.184L216.679 203.253C219.482 201.486 223.008 202.428 224.556 205.357L232.564 220.505C234.113 223.435 233.096 227.244 230.292 229.012L203.441 245.942C200.639 247.709 197.113 246.768 195.565 243.839L187.557 228.691Z" fill="#FCE63D"/>
<path d="M398.545 154.051C398.219 154.05 397.926 153.832 397.806 153.501C397.71 153.235 395.476 147.016 397.734 143.188C398.761 141.442 400.507 140.495 402.928 140.369C411.655 139.91 412.918 139.583 415.551 135.005C416.576 133.122 418.353 131.876 420.347 131.644C423.735 131.234 427.839 133.39 431.599 137.527C431.8 137.749 431.878 138.071 431.803 138.372C431.728 138.673 431.512 138.908 431.236 138.987C430.96 139.067 430.665 138.98 430.464 138.758C427.1 135.044 423.379 133.036 420.522 133.381C419.007 133.543 417.655 134.492 416.89 135.93C413.781 141.346 411.623 141.661 402.992 142.11C401.09 142.21 399.796 142.869 399.06 144.131C397.25 147.186 399.252 152.799 399.272 152.86C399.433 153.307 399.233 153.812 398.825 153.99C398.736 154.029 398.641 154.05 398.545 154.051Z" fill="white"/>
<path d="M391.816 140.775C391.401 140.777 391.054 140.432 391.016 139.98C390.997 139.767 390.641 134.63 396.347 130.16C402.053 125.691 409.298 129.92 409.601 130.104C409.988 130.338 410.127 130.869 409.913 131.291C409.699 131.713 409.212 131.865 408.826 131.631C408.762 131.592 402.193 127.729 397.278 131.579C392.363 135.428 392.603 139.78 392.607 139.823C392.627 140.054 392.562 140.284 392.426 140.463C392.29 140.642 392.095 140.754 391.884 140.775H391.816Z" fill="white"/>
<path d="M387.405 135.93C387.159 135.932 386.926 135.809 386.773 135.599C386.681 135.463 384.488 132.312 386.446 126.87C388.404 121.427 394.621 120.869 394.885 120.851C395.326 120.818 395.709 121.181 395.74 121.663C395.771 122.145 395.438 122.563 394.997 122.597C394.909 122.597 389.526 123.086 387.932 127.516C386.306 132.024 388.016 134.499 388.032 134.499C388.163 134.681 388.222 134.913 388.197 135.143C388.171 135.373 388.063 135.582 387.896 135.725C387.758 135.852 387.585 135.925 387.405 135.93Z" fill="white"/>
<path fill-rule="evenodd" clip-rule="evenodd" d="M104.694 432.305C113.021 435.22 121.96 436.669 131.654 436.669C141.028 436.669 151.102 435.329 162.039 432.623L164.037 432.126L164.146 432.099C169.443 430.788 175.181 429.368 180.92 427.574C182.862 428.481 184.744 429.236 186.41 429.843C195.748 433.278 206.689 434.81 219.852 434.587C235.923 434.317 253.358 430.668 273.157 423.432C297.992 414.332 323.07 401.61 349.819 384.588C369.251 372.202 388.108 357.974 406.341 344.213C409.916 341.51 413.491 338.817 417.066 336.135C417.322 335.968 417.472 335.66 417.456 335.335C417.439 335.01 417.258 334.722 416.986 334.589C416.714 334.455 416.397 334.497 416.163 334.699C412.583 337.387 409.006 340.08 405.434 342.777C387.225 356.521 368.392 370.731 349.012 383.078C322.359 400.06 297.381 412.713 272.65 421.756C252.994 428.935 235.732 432.553 219.828 432.82C206.849 433.042 196.08 431.519 186.917 428.167C185.815 427.766 184.616 427.299 183.369 426.762C193.447 423.401 203.345 418.788 210.677 411.486C213.434 408.741 214.929 405.594 214.997 402.387C215.065 399.314 213.798 396.268 211.344 393.579C204.703 386.33 190.538 386.548 180.576 390.428C171.23 394.077 165.467 400.549 164.768 408.187C164.001 416.61 171.317 422.589 178.646 426.417C173.515 427.953 168.416 429.215 163.677 430.384L161.679 430.886C139.762 436.316 121.285 436.246 105.189 430.642C91.2313 425.78 79.5913 416.313 71.5355 403.264C58.7845 382.629 53.8456 352.916 71.5355 333.062C87.3273 315.33 111.614 311.118 124.681 310.184C128.336 309.921 132.002 309.867 135.662 310.022C135.947 310.034 136.217 309.879 136.369 309.614C136.521 309.35 136.532 309.017 136.399 308.741C136.265 308.466 136.007 308.288 135.722 308.277C132.007 308.121 128.287 308.176 124.577 308.443C111.279 309.394 86.5561 313.697 70.3887 331.845C52.0674 352.401 57.0943 383.017 70.2009 404.241C78.4644 417.618 90.3922 427.321 104.694 432.305ZM181.127 392.095C185.481 390.41 190.066 389.544 194.685 389.533V389.529C201.207 389.529 207.045 391.358 210.206 394.827C212.355 397.167 213.458 399.772 213.402 402.36C213.346 405.088 212.032 407.798 209.606 410.216C202.042 417.749 191.569 422.371 181.023 425.71C173.635 422.184 165.635 416.453 166.37 408.383C167.006 401.439 172.384 395.504 181.127 392.095Z" fill="white"/>
</svg>
