<svg width="25" height="25" viewBox="0 0 25 25" fill="none" xmlns="http://www.w3.org/2000/svg">
<path d="M11.4688 16.7647C12.0172 17.204 12.797 17.2037 13.3451 16.7641L20.0169 11.413L20.246 11.2303C20.9977 10.6306 20.9989 9.48839 20.2485 8.8871L13.3451 3.3557C12.797 2.91647 12.0174 2.91647 11.4692 3.3557L4.56144 8.89068C3.81245 9.49083 3.81196 10.6303 4.56044 11.231L4.78712 11.413L11.4688 16.7647Z" fill="#6993FF"/>
<path opacity="0.3" fill-rule="evenodd" clip-rule="evenodd" d="M13.3347 19.4704C12.7866 19.9096 12.0072 19.9097 11.459 19.4706L5.52621 14.7187C5.11478 14.3892 4.51294 14.4618 4.19168 14.8797C3.87519 15.2915 3.95204 15.8818 4.36341 16.1988L11.4902 21.6904C12.0297 22.1062 12.7815 22.1062 13.3211 21.6906L20.4445 16.2036C20.8594 15.884 20.9367 15.2887 20.6172 14.8738C20.2932 14.4532 19.6872 14.3804 19.2729 14.7123L13.3347 19.4704Z" fill="#6993FF"/>
</svg>
