<svg width="19" height="19" viewBox="0 0 25 25" fill="none" xmlns="http://www.w3.org/2000/svg">
<path opacity="0.3" d="M12.5 4.75207L8.09192 10.0418C7.72363 10.4837 7.06679 10.5435 6.62483 10.1752C6.18288 9.80687 6.12317 9.15003 6.49146 8.70807L11.6998 2.45808C12.1163 1.95833 12.8838 1.95833 13.3003 2.45808L18.5086 8.70807C18.8769 9.15003 18.8172 9.80687 18.3752 10.1752C17.9333 10.5435 17.2764 10.4837 16.9081 10.0418L12.5 4.75207Z" fill="#1BC5BD"/>
<path fill-rule="evenodd" clip-rule="evenodd" d="M5.15848 9.375C4.44135 9.375 3.95733 10.1076 4.23861 10.7672L7.55592 18.5471C8.02741 19.6528 9.11343 20.3704 10.3155 20.3704H14.6844C15.8866 20.3704 16.9726 19.6527 17.4441 18.5468L20.7606 10.7672C21.0418 10.1075 20.5578 9.375 19.8407 9.375H5.15848ZM14.5833 15.6251C14.5833 16.7757 13.6505 17.7084 12.4999 17.7084C11.3494 17.7084 10.4166 16.7757 10.4166 15.6251C10.4166 14.4745 11.3494 13.5417 12.4999 13.5417C13.6505 13.5417 14.5833 14.4745 14.5833 15.6251Z" fill="#1BC5BD"/>
</svg>
