<svg width="19" height="19" viewBox="0 0 19 19" fill="none" xmlns="http://www.w3.org/2000/svg">
<path opacity="0.3" d="M11.3152 13.2265C11.006 12.9173 11.006 12.416 11.3152 12.1069C11.6244 11.7977 12.1256 11.7977 12.4348 12.1069L15.6014 15.2735C15.9106 15.5827 15.9106 16.084 15.6014 16.3931C15.2923 16.7023 14.791 16.7023 14.4819 16.3931L11.3152 13.2265Z" fill="#17E59E"/>
<path fill-rule="evenodd" clip-rule="evenodd" d="M3.16669 8.70833C3.16669 11.7689 5.64778 14.25 8.70835 14.25C11.7689 14.25 14.25 11.7689 14.25 8.70833C14.25 5.64775 11.7689 3.16666 8.70835 3.16666C5.64778 3.16666 3.16669 5.64775 3.16669 8.70833ZM12.6667 8.70833C12.6667 10.8945 10.8945 12.6667 8.70835 12.6667C6.52223 12.6667 4.75002 10.8945 4.75002 8.70833C4.75002 6.52221 6.52223 4.75 8.70835 4.75C10.8945 4.75 12.6667 6.52221 12.6667 8.70833Z" fill="#17E59E"/>
</svg>
