<svg width="19" height="21" viewBox="0 0 19 21" fill="none" xmlns="http://www.w3.org/2000/svg">
<path opacity="0.3" d="M8.31513 13.6237C8.00596 13.2886 8.00596 12.7454 8.31513 12.4104C8.62429 12.0753 9.12555 12.0753 9.43471 12.4104L12.6014 15.8422C12.9105 16.1773 12.9105 16.7205 12.6014 17.0556C12.2922 17.3906 11.791 17.3906 11.4818 17.0556L8.31513 13.6237Z" fill="white"/>
<path fill-rule="evenodd" clip-rule="evenodd" d="M0 7.46283C0 10.7797 2.48109 13.4686 5.54167 13.4686C8.60225 13.4686 11.0833 10.7797 11.0833 7.46283C11.0833 4.14592 8.60225 1.45703 5.54167 1.45703C2.48109 1.45703 0 4.14592 0 7.46283ZM9.5 7.46283C9.5 9.83205 7.72779 11.7527 5.54167 11.7527C3.35554 11.7527 1.58333 9.83205 1.58333 7.46283C1.58333 5.09361 3.35554 3.17298 5.54167 3.17298C7.72779 3.17298 9.5 5.09361 9.5 7.46283Z" fill="#F0F0F1"/>
</svg>
