<svg width="20" height="21" viewBox="0 0 20 21" fill="none" xmlns="http://www.w3.org/2000/svg">
<rect opacity="0.3" x="16.564" y="9.86124" width="1.64102" height="7.38461" rx="0.820512" transform="rotate(90 16.564 9.86124)" fill="#1BC5BD"/>
<path d="M10.5806 6.33886C10.901 6.01843 10.901 5.49891 10.5806 5.17848C10.2602 4.85805 9.74067 4.85805 9.42024 5.17848L4.49716 10.1016C4.18653 10.4122 4.17566 10.9124 4.47251 11.2362L8.98533 16.1593C9.29154 16.4933 9.81056 16.5159 10.1446 16.2097C10.4787 15.9035 10.5012 15.3844 10.195 15.0504L6.21305 10.7064L10.5806 6.33886Z" fill="#1BC5BD"/>
<path d="M6.88823 6.33886C7.20866 6.01843 7.20866 5.49891 6.88823 5.17848C6.5678 4.85805 6.04828 4.85805 5.72785 5.17848L0.804777 10.1016C0.494148 10.4122 0.48328 10.9124 0.780123 11.2362L5.29294 16.1593C5.59915 16.4933 6.11818 16.5159 6.45223 16.2097C6.78627 15.9035 6.80884 15.3844 6.50263 15.0504L2.52067 10.7064L6.88823 6.33886Z" fill="#1BC5BD"/>
</svg>
