<svg width="20" height="20" viewBox="0 0 20 20" fill="none" xmlns="http://www.w3.org/2000/svg">
<rect opacity="0.3" x="3.43604" y="10.8205" width="1.64102" height="7.38461" rx="0.820512" transform="rotate(-90 3.43604 10.8205)" fill="#1BC5BD"/>
<path d="M9.41987 14.3429C9.09944 14.6633 9.09944 15.1829 9.41987 15.5033C9.7403 15.8237 10.2598 15.8237 10.5803 15.5033L15.5033 10.5802C15.814 10.2696 15.8248 9.76941 15.528 9.44558L11.0152 4.5225C10.709 4.18845 10.1899 4.16589 9.85588 4.4721C9.52183 4.77831 9.49926 5.29734 9.80547 5.63138L13.7874 9.97534L9.41987 14.3429Z" fill="#1BC5BD"/>
<path d="M12.975 14.3429C12.6546 14.6633 12.6546 15.1829 12.975 15.5033C13.2955 15.8237 13.815 15.8237 14.1354 15.5033L19.0585 10.5802C19.3691 10.2696 19.38 9.76941 19.0832 9.44558L14.5703 4.52251C14.2641 4.18846 13.7451 4.1659 13.4111 4.47211C13.077 4.77831 13.0544 5.29734 13.3607 5.63139L17.3426 9.97535L12.975 14.3429Z" fill="#1BC5BD"/>
</svg>
