<svg width="22" height="22" viewBox="0 0 22 22" fill="none" xmlns="http://www.w3.org/2000/svg">
<path d="M5.9375 7.62503V17.9375C5.9375 18.766 6.60907 19.4375 7.4375 19.4375H14.5625C15.3909 19.4375 16.0625 18.766 16.0625 17.9375V7.62503H5.9375Z" fill="#FF4236"/>
<path opacity="0.3" fill-rule="evenodd" clip-rule="evenodd" d="M12.6875 4.67188V4.40625C12.6875 3.85397 12.2398 3.40625 11.6875 3.40625H10.3125C9.76022 3.40625 9.3125 3.85397 9.3125 4.40625V4.67188H5.59375C5.31761 4.67188 5.09375 4.89573 5.09375 5.17188V5.4375C5.09375 5.71364 5.31761 5.9375 5.59375 5.9375H16.4062C16.6824 5.9375 16.9062 5.71364 16.9062 5.4375V5.17188C16.9062 4.89573 16.6824 4.67188 16.4062 4.67188H12.6875Z" fill="#FF4236"/>
</svg>
