<svg width="26" height="26" viewBox="0 0 26 26" fill="none" xmlns="http://www.w3.org/2000/svg">
<path opacity="0.3" fill-rule="evenodd" clip-rule="evenodd" d="M9.74984 11.9167C7.3566 11.9167 5.4165 9.97657 5.4165 7.58333C5.4165 5.1901 7.3566 3.25 9.74984 3.25C12.1431 3.25 14.0832 5.1901 14.0832 7.58333C14.0832 9.97657 12.1431 11.9167 9.74984 11.9167ZM20.4998 11.9167C19.9475 11.9167 19.4998 11.469 19.4998 10.9167V8.66667H17.2498C16.6976 8.66667 16.2498 8.21895 16.2498 7.66667V7.5C16.2498 6.94772 16.6976 6.5 17.2498 6.5H19.4998V4.25C19.4998 3.69771 19.9475 3.25 20.4998 3.25H20.6665C21.2187 3.25 21.6665 3.69771 21.6665 4.25V6.5H23.9165C24.4688 6.5 24.9165 6.94772 24.9165 7.5V7.66667C24.9165 8.21895 24.4688 8.66667 23.9165 8.66667H21.6665V10.9167C21.6665 11.469 21.2187 11.9167 20.6665 11.9167H20.4998Z" fill="#FFA800"/>
<path d="M0.000705991 21.8825C0.420613 16.7121 4.61707 14.0833 9.73195 14.0833C14.9188 14.0833 19.1803 16.5676 19.4977 21.8833C19.5104 22.0951 19.4977 22.75 18.6839 22.75C14.6696 22.75 8.70429 22.75 0.788127 22.75C0.516438 22.75 -0.0221669 22.1641 0.000705991 21.8825Z" fill="#FFA800"/>
</svg>
